<?xml version="1.0" encoding="utf-8"?>
<!-- Generator: Adobe Illustrator 27.2.0, SVG Export Plug-In . SVG Version: 6.00 Build 0)  -->
<svg version="1.1" xmlns="http://www.w3.org/2000/svg" xmlns:xlink="http://www.w3.org/1999/xlink" x="0px" y="0px"
	 viewBox="0 0 460.1 525.8" style="enable-background:new 0 0 460.1 525.8;" xml:space="preserve">
<style type="text/css">
	.st0{fill:#660505;}
	.st1{fill:#FCB305;}
	.st2{display:none;}
	.st3{display:inline;fill:#FFFFFF;}
</style>
<g id="Logo">
	<rect y="0" class="st0" width="460.1" height="525.7"/>
	<g>
		<path class="st1" d="M88.9,437.5H78c-1.9-1.4-4.9-4.9-8.8-10.6c-1.3-1.8-2.6-3.6-4-5.3s-2.3-2.7-2.8-3.1c-0.5-0.4-1.3-0.6-2.4-0.6
			h-1.6v9c0,3.2,0.1,5.3,0.2,6.2c0.1,1,0.5,1.7,1.2,2.2c0.6,0.5,1.9,0.7,3.7,0.7h1.9v1.4H46.1v-1.4h1.3c1.7,0,2.9-0.2,3.6-0.7
			c0.7-0.4,1.1-1.1,1.3-2c0.2-0.9,0.3-3.1,0.3-6.4v-19.8c0-3.2-0.1-5.3-0.3-6.2c-0.2-0.9-0.6-1.6-1.2-1.9c-0.6-0.4-1.9-0.5-4-0.5
			h-0.7v-1.4l5.8-0.3c3.9-0.2,6.9-0.3,9.2-0.3c3.9,0,7,0.4,9.4,1.1c2.4,0.7,4.4,1.9,5.9,3.5c1.5,1.6,2.2,3.6,2.2,5.8
			c0,2.6-1,4.9-2.9,6.8c-1.9,1.9-4.8,3-8.6,3.5c1.7,0.8,4.4,3.8,8.2,8.8c3.1,4.1,5.5,6.8,7.2,8.1c1.7,1.3,3.8,1.9,6.2,2V437.5z
			 M58.4,416.7c1.5,0,3-0.1,4.6-0.2c1.6-0.1,3-0.3,4.1-0.7c1.2-0.4,2.1-0.9,2.8-1.6c0.7-0.7,1.3-1.6,1.7-2.7
			c0.4-1.1,0.6-2.5,0.6-4.1c0-2.8-0.7-5.1-2.1-6.8c-1.4-1.7-4.5-2.6-9.3-2.6c-0.7,0-1.6,0-2.5,0.1V416.7z"/>
		<path class="st1" d="M132.9,422.6h-15.3l-1,2.6c-1.5,3.7-2.3,6.1-2.3,7.3c0,1.2,0.4,2.1,1.2,2.8c0.8,0.6,1.9,0.9,3.2,0.9v1.4h-12
			v-1.4c1.8-0.3,3.1-0.9,4-1.9c0.9-1,1.9-3.1,3.2-6.2c0.1-0.3,0.6-1.4,1.4-3.5l11.7-28h1.2l13.5,32.1l1.8,4.2c0.4,1,1,1.7,1.7,2.2
			c0.7,0.5,1.8,0.9,3.2,1v1.4h-15.9v-1.4c1.9,0,3.3-0.1,3.9-0.4c0.7-0.3,1-0.9,1-1.7c0-0.4-0.5-1.7-1.4-3.9L132.9,422.6z
			 M132.3,421.3l-7.1-17.2l-7.1,17.2H132.3z"/>
		<path class="st1" d="M202.9,438.4l-28.6-37.9v28c0,2.3,0.1,3.9,0.3,4.6c0.2,0.7,0.9,1.4,2,2c1.1,0.6,2.7,0.9,4.8,0.9v1.4h-15.1
			v-1.4c1.9-0.1,3.4-0.5,4.4-1.1c1-0.6,1.6-1.2,1.8-1.8c0.2-0.7,0.3-2.2,0.3-4.6v-21.4c0-3.1-0.1-5.2-0.4-6.2
			c-0.3-1.1-0.7-1.7-1.4-2c-0.6-0.3-2-0.4-4.2-0.4v-1.4h11.9l23.9,31.6v-24.2c0-1.8-0.2-3-0.6-3.8c-0.4-0.7-1.1-1.3-2.2-1.7
			c-1.1-0.4-2.5-0.6-4.1-0.6v-1.4h14.7v1.4c-1.7,0.1-3.1,0.5-4,1c-1,0.5-1.6,1.1-1.9,1.9c-0.3,0.7-0.4,2-0.4,3.7v33.4H202.9z"/>
		<path class="st1" d="M230.8,397.1h18.8v1.4h-1c-2,0-3.3,0.2-3.9,0.5c-0.6,0.3-1,0.9-1.2,1.8c-0.2,0.9-0.3,3-0.3,6.4v26.4
			c0,3.4-0.1,6-0.4,7.8c-0.3,1.8-1,3.5-2.2,5.2c-1.2,1.7-2.9,3-4.9,3.9c-2.1,0.9-4.4,1.4-7.2,1.4c-3.1,0-5.4-0.6-7.1-1.7
			c-1.6-1.1-2.5-2.5-2.5-4c0-0.9,0.3-1.7,0.9-2.4c0.6-0.6,1.3-1,2.2-1c0.9,0,1.6,0.3,2.2,0.9s0.9,1.3,0.9,2.1c0,0.5-0.1,1-0.4,1.5
			c-0.2,0.5-0.3,0.8-0.3,1.1c0,0.6,0.4,1.1,1.1,1.5s1.7,0.5,2.8,0.5c2.3,0,4.2-0.7,5.7-2.2s2.5-3.1,2.8-5.1c0.3-2,0.5-5.2,0.5-9.7
			v-26.4c0-3.2-0.1-5.3-0.3-6.2c-0.2-0.9-0.6-1.6-1.2-1.9s-1.9-0.5-4-0.5h-1V397.1z"/>
		<path class="st1" d="M269.3,398.5v-1.4h18.5v1.4h-0.9c-2,0-3.3,0.2-3.9,0.5c-0.6,0.3-1,0.9-1.2,1.8c-0.2,0.9-0.3,3-0.3,6.4V427
			c0,3.2,0.1,5.3,0.2,6.2c0.1,1,0.5,1.7,1.2,2.2s1.9,0.7,3.7,0.7h1.2v1.4h-18.5v-1.4h1.2c1.7,0,2.9-0.2,3.6-0.7
			c0.7-0.4,1.1-1.1,1.3-2c0.2-0.9,0.3-3.1,0.3-6.4v-19.8c0-3.2-0.1-5.3-0.3-6.2c-0.2-0.9-0.6-1.6-1.2-1.9s-1.9-0.5-4-0.5H269.3z"/>
		<path class="st1" d="M309.7,406.8h-1.4l0.2-9.7h39.2l0.2,9.7h-1.3c-0.5-2.7-1.1-4.6-1.9-5.8c-0.8-1.2-1.6-1.9-2.6-2.2
			c-0.9-0.3-2.5-0.4-4.7-0.4h-6.5V427c0,3.2,0.1,5.2,0.2,6.2c0.1,1,0.6,1.7,1.2,2.2c0.7,0.5,1.9,0.7,3.7,0.7h2v1.4H318v-1.4h2.1
			c1.7,0,2.9-0.2,3.6-0.7c0.7-0.4,1.1-1.1,1.3-2c0.2-0.9,0.3-3.1,0.3-6.4v-28.5h-6c-2.6,0-4.3,0.1-5.2,0.4c-0.9,0.2-1.7,1-2.5,2.2
			S310.1,404.3,309.7,406.8z"/>
		<path class="st1" d="M401.9,417.3h-21.1v9.7c0,3.2,0.1,5.3,0.2,6.2c0.2,1,0.6,1.7,1.2,2.2c0.6,0.5,1.9,0.7,3.7,0.7h1v1.4h-18.2
			v-1.4h1c1.7,0,2.9-0.2,3.6-0.7c0.7-0.4,1.1-1.1,1.3-2c0.2-0.9,0.3-3.1,0.3-6.4v-19.8c0-3.2-0.1-5.3-0.3-6.2
			c-0.2-0.9-0.6-1.6-1.2-1.9s-1.9-0.5-4-0.5h-0.7v-1.4h18.2v1.4h-0.7c-2,0-3.3,0.2-3.9,0.5c-0.6,0.3-1,0.9-1.2,1.8
			c-0.2,0.9-0.3,3-0.3,6.4v8h21.1v-8c0-3.2-0.1-5.3-0.3-6.2c-0.2-0.9-0.6-1.6-1.2-1.9s-1.9-0.5-4-0.5h-1.1v-1.4h18.4v1.4h-0.6
			c-2,0-3.3,0.2-3.9,0.5c-0.6,0.3-1,0.9-1.2,1.8c-0.2,0.9-0.3,3-0.3,6.4V427c0,3.2,0.1,5.3,0.2,6.2c0.1,1,0.6,1.7,1.2,2.2
			c0.7,0.5,1.9,0.7,3.7,0.7h0.9v1.4h-18.4v-1.4h1.4c1.7,0,2.9-0.2,3.6-0.7c0.7-0.4,1.1-1.1,1.3-2c0.2-0.9,0.3-3.1,0.3-6.4V417.3z"/>
		<path class="st1" d="M105.7,472.3c-1.5,1.6-3.1,2.4-5,2.4c-1.1,0-2-0.2-2.9-0.7c-0.9-0.5-1.7-1.1-2.3-1.8s-1.2-1.6-1.5-2.5
			c-0.4-0.9-0.5-1.9-0.5-2.9c0-1,0.2-2,0.5-3c0.4-1,0.9-1.8,1.5-2.5c0.6-0.7,1.4-1.3,2.3-1.7c0.9-0.4,1.9-0.6,2.9-0.6
			c0.8,0,1.5,0.1,2.1,0.3c0.6,0.2,1.2,0.4,1.7,0.7c0.5,0.3,0.9,0.7,1.3,1.1c0.4,0.4,0.7,0.9,0.9,1.4l-1.2,0.8c-0.5-1-1.2-1.7-2-2.1
			c-0.8-0.5-1.8-0.7-2.8-0.7c-0.9,0-1.6,0.2-2.3,0.5c-0.7,0.4-1.3,0.9-1.8,1.5c-0.5,0.6-0.9,1.3-1.1,2.1c-0.3,0.8-0.4,1.6-0.4,2.4
			c0,0.9,0.2,1.7,0.5,2.5c0.3,0.8,0.7,1.5,1.2,2.1c0.5,0.6,1.1,1.1,1.9,1.4c0.7,0.4,1.5,0.5,2.3,0.5c0.9,0,1.7-0.2,2.6-0.6
			c0.8-0.4,1.6-1.1,2.3-2V468h-3.5v-1.2h4.8v7.7h-1.3V472.3z"/>
		<path class="st1" d="M115.6,464.4c-1,0-1.9,0.3-2.6,0.8c-0.7,0.5-1.3,1.3-1.6,2.2v7.1h-1.5v-11.5h1.4v2.8c0.4-0.8,0.9-1.5,1.6-2
			c0.6-0.5,1.3-0.8,2.1-0.8c0.1,0,0.3,0,0.4,0c0.1,0,0.2,0,0.3,0V464.4z"/>
		<path class="st1" d="M122,474.7c-0.8,0-1.6-0.2-2.3-0.5s-1.3-0.7-1.8-1.3c-0.5-0.5-0.9-1.2-1.2-1.9c-0.3-0.7-0.4-1.5-0.4-2.3
			c0-0.8,0.1-1.6,0.4-2.3c0.3-0.7,0.7-1.3,1.2-1.9s1.1-1,1.8-1.3s1.5-0.5,2.3-0.5c0.8,0,1.6,0.2,2.3,0.5c0.7,0.3,1.3,0.8,1.8,1.3
			c0.5,0.5,0.9,1.2,1.2,1.9c0.3,0.7,0.4,1.5,0.4,2.3c0,0.8-0.1,1.5-0.4,2.3c-0.3,0.7-0.7,1.3-1.2,1.9c-0.5,0.5-1.1,1-1.8,1.3
			C123.6,474.6,122.8,474.7,122,474.7z M117.8,468.9c0,0.6,0.1,1.2,0.3,1.8s0.5,1,0.9,1.5s0.8,0.7,1.3,1c0.5,0.2,1,0.4,1.6,0.4
			c0.6,0,1.1-0.1,1.6-0.4c0.5-0.2,0.9-0.6,1.3-1s0.7-0.9,0.9-1.5c0.2-0.6,0.3-1.2,0.3-1.8c0-0.6-0.1-1.2-0.3-1.8
			c-0.2-0.6-0.5-1.1-0.9-1.5s-0.8-0.7-1.3-1c-0.5-0.2-1-0.4-1.6-0.4c-0.6,0-1.1,0.1-1.6,0.4c-0.5,0.2-0.9,0.6-1.3,1
			c-0.4,0.4-0.7,0.9-0.9,1.5C118,467.6,117.8,468.2,117.8,468.9z"/>
		<path class="st1" d="M135.1,474.7c-0.8,0-1.6-0.2-2.3-0.5s-1.3-0.7-1.8-1.3c-0.5-0.5-0.9-1.2-1.2-1.9c-0.3-0.7-0.4-1.5-0.4-2.3
			c0-0.8,0.1-1.6,0.4-2.3c0.3-0.7,0.7-1.3,1.2-1.9s1.1-1,1.8-1.3s1.5-0.5,2.3-0.5c0.8,0,1.6,0.2,2.3,0.5c0.7,0.3,1.3,0.8,1.8,1.3
			c0.5,0.5,0.9,1.2,1.2,1.9c0.3,0.7,0.4,1.5,0.4,2.3c0,0.8-0.1,1.5-0.4,2.3c-0.3,0.7-0.7,1.3-1.2,1.9c-0.5,0.5-1.1,1-1.8,1.3
			C136.7,474.6,135.9,474.7,135.1,474.7z M130.9,468.9c0,0.6,0.1,1.2,0.3,1.8s0.5,1,0.9,1.5s0.8,0.7,1.3,1c0.5,0.2,1,0.4,1.6,0.4
			c0.6,0,1.1-0.1,1.6-0.4c0.5-0.2,0.9-0.6,1.3-1s0.7-0.9,0.9-1.5c0.2-0.6,0.3-1.2,0.3-1.8c0-0.6-0.1-1.2-0.3-1.8
			c-0.2-0.6-0.5-1.1-0.9-1.5s-0.8-0.7-1.3-1c-0.5-0.2-1-0.4-1.6-0.4c-0.6,0-1.1,0.1-1.6,0.4c-0.5,0.2-0.9,0.6-1.3,1
			c-0.4,0.4-0.7,0.9-0.9,1.5C131,467.6,130.9,468.2,130.9,468.9z"/>
		<path class="st1" d="M160.3,474.5h-1.5v-6.4c0-1.3-0.2-2.3-0.6-2.9s-1.1-0.9-1.9-0.9c-0.4,0-0.9,0.1-1.2,0.2
			c-0.4,0.2-0.7,0.4-1.1,0.7c-0.3,0.3-0.6,0.6-0.9,1s-0.4,0.8-0.6,1.3v7H151v-6.4c0-1.4-0.2-2.4-0.6-3s-1-0.9-1.9-0.9
			c-0.9,0-1.6,0.3-2.3,0.9c-0.7,0.6-1.2,1.4-1.5,2.4v7h-1.5v-11.5h1.4v2.6c0.5-0.9,1.1-1.6,1.8-2.1s1.6-0.7,2.5-0.7
			c1,0,1.7,0.3,2.3,0.8c0.6,0.5,0.9,1.3,1.1,2.1c1.1-2,2.6-2.9,4.4-2.9c0.6,0,1.2,0.1,1.6,0.4s0.8,0.6,1.1,1c0.3,0.4,0.5,1,0.6,1.6
			c0.1,0.6,0.2,1.3,0.2,2V474.5z"/>
		<path class="st1" d="M163.4,460.7v-2.2h1.5v2.2H163.4z M163.4,474.5v-11.5h1.5v11.5H163.4z"/>
		<path class="st1" d="M177.7,474.5h-1.5v-6.4c0-1.4-0.2-2.4-0.6-3s-1-0.9-1.8-0.9c-0.4,0-0.9,0.1-1.3,0.2s-0.9,0.4-1.2,0.7
			c-0.4,0.3-0.7,0.6-1,1s-0.5,0.8-0.6,1.3v7h-1.5v-11.5h1.4v2.6c0.2-0.4,0.5-0.8,0.9-1.1s0.7-0.6,1.2-0.9c0.4-0.2,0.9-0.4,1.4-0.6
			c0.5-0.1,1-0.2,1.5-0.2c0.6,0,1.2,0.1,1.6,0.4c0.4,0.2,0.8,0.6,1,1c0.3,0.4,0.5,0.9,0.6,1.6c0.1,0.6,0.2,1.3,0.2,2V474.5z"/>
		<path class="st1" d="M185.5,474.7c-0.8,0-1.5-0.2-2.2-0.5c-0.7-0.3-1.2-0.8-1.7-1.3c-0.5-0.5-0.8-1.2-1.1-1.9
			c-0.3-0.7-0.4-1.4-0.4-2.2c0-0.8,0.1-1.6,0.4-2.3c0.3-0.7,0.6-1.4,1.1-1.9c0.5-0.5,1-1,1.7-1.3c0.7-0.3,1.4-0.5,2.2-0.5
			c1,0,1.8,0.2,2.6,0.7s1.3,1.1,1.8,1.9v-2.4h1.3v11.5c0,0.8-0.2,1.5-0.5,2.1c-0.3,0.6-0.7,1.1-1.2,1.5c-0.5,0.4-1.1,0.7-1.8,0.9
			c-0.7,0.2-1.4,0.3-2.2,0.3c-1.3,0-2.4-0.2-3.2-0.7c-0.8-0.5-1.5-1.1-2-1.9l0.9-0.7c0.5,0.7,1.1,1.3,1.8,1.6s1.5,0.5,2.4,0.5
			c0.6,0,1.1-0.1,1.6-0.2c0.5-0.2,0.9-0.4,1.3-0.7s0.7-0.7,0.9-1.1c0.2-0.5,0.3-1,0.3-1.6v-2.3c-0.5,0.7-1.1,1.3-1.8,1.7
			C187.1,474.5,186.3,474.7,185.5,474.7z M185.9,473.4c0.4,0,0.9-0.1,1.3-0.2s0.8-0.4,1.2-0.6c0.3-0.3,0.6-0.6,0.9-0.9
			c0.2-0.3,0.4-0.7,0.5-1V467c-0.2-0.4-0.4-0.8-0.7-1.1c-0.3-0.4-0.6-0.7-1-0.9c-0.4-0.2-0.7-0.4-1.1-0.6s-0.8-0.2-1.2-0.2
			c-0.6,0-1.2,0.1-1.7,0.4s-0.9,0.6-1.3,1.1c-0.4,0.4-0.6,0.9-0.8,1.5c-0.2,0.6-0.3,1.1-0.3,1.7c0,0.6,0.1,1.2,0.3,1.8
			s0.5,1,0.9,1.5s0.8,0.7,1.4,1S185.3,473.4,185.9,473.4z"/>
		<path class="st1" d="M204.3,466.9c0,0.6-0.2,1-0.6,1.4c-0.4,0.4-0.8,0.6-1.4,0.6c-0.5,0-1-0.2-1.4-0.6c-0.4-0.4-0.6-0.9-0.6-1.4
			c0-0.3,0.1-0.5,0.2-0.7c0.1-0.2,0.2-0.4,0.4-0.6c0.2-0.2,0.4-0.3,0.6-0.4c0.2-0.1,0.5-0.2,0.8-0.2s0.5,0.1,0.8,0.2
			c0.2,0.1,0.5,0.2,0.6,0.4c0.2,0.2,0.3,0.4,0.4,0.6C204.2,466.4,204.3,466.7,204.3,466.9z"/>
		<path class="st1" d="M223,461.8c-0.4-0.5-1-0.9-1.8-1.2c-0.7-0.3-1.6-0.5-2.5-0.5c-1.4,0-2.4,0.3-3,0.8s-0.9,1.2-0.9,2.1
			c0,0.5,0.1,0.9,0.3,1.2c0.2,0.3,0.4,0.6,0.8,0.8c0.4,0.2,0.8,0.4,1.4,0.6c0.5,0.2,1.2,0.3,1.9,0.5c0.8,0.2,1.6,0.4,2.2,0.6
			s1.2,0.5,1.7,0.8c0.5,0.3,0.8,0.7,1.1,1.2c0.2,0.5,0.4,1.1,0.4,1.8c0,0.7-0.1,1.3-0.4,1.9c-0.3,0.5-0.7,1-1.2,1.3
			c-0.5,0.4-1.1,0.6-1.8,0.8c-0.7,0.2-1.4,0.3-2.2,0.3c-2.4,0-4.5-0.8-6.3-2.3l0.7-1.3c0.6,0.6,1.3,1.1,2.3,1.5s2,0.6,3.2,0.6
			c1.2,0,2.2-0.2,2.9-0.7c0.7-0.4,1.1-1.1,1.1-2c0-0.5-0.1-0.9-0.3-1.2s-0.5-0.6-0.9-0.9c-0.4-0.2-0.9-0.5-1.5-0.6
			c-0.6-0.2-1.3-0.4-2.1-0.5c-0.8-0.2-1.5-0.4-2.2-0.6c-0.6-0.2-1.1-0.5-1.6-0.8c-0.4-0.3-0.7-0.7-0.9-1.1c-0.2-0.4-0.3-1-0.3-1.6
			c0-0.7,0.1-1.4,0.4-1.9s0.7-1,1.1-1.4s1.1-0.7,1.8-0.9c0.7-0.2,1.4-0.3,2.3-0.3c1,0,1.9,0.2,2.8,0.5c0.8,0.3,1.6,0.8,2.2,1.3
			L223,461.8z"/>
		<path class="st1" d="M236.5,474.5H235v-6.4c0-1.3-0.2-2.3-0.7-2.9c-0.4-0.6-1.1-1-2-1c-0.4,0-0.8,0.1-1.3,0.3s-0.8,0.4-1.2,0.7
			c-0.4,0.3-0.7,0.6-1,1c-0.3,0.4-0.5,0.8-0.6,1.3v7h-1.5v-16.1h1.5v7.2c0.5-0.9,1.1-1.5,1.9-2c0.8-0.5,1.7-0.7,2.6-0.7
			c0.7,0,1.2,0.1,1.7,0.4s0.8,0.6,1.1,1s0.5,1,0.6,1.6s0.2,1.3,0.2,2V474.5z"/>
		<path class="st1" d="M244.6,474.7c-0.8,0-1.6-0.2-2.3-0.5s-1.3-0.7-1.8-1.3c-0.5-0.5-0.9-1.2-1.2-1.9c-0.3-0.7-0.4-1.5-0.4-2.3
			c0-0.8,0.1-1.6,0.4-2.3c0.3-0.7,0.7-1.3,1.2-1.9c0.5-0.5,1.1-1,1.8-1.3c0.7-0.3,1.5-0.5,2.3-0.5s1.6,0.2,2.3,0.5
			c0.7,0.3,1.3,0.8,1.8,1.3s0.9,1.2,1.2,1.9c0.3,0.7,0.4,1.5,0.4,2.3c0,0.8-0.1,1.5-0.4,2.3s-0.7,1.3-1.2,1.9
			c-0.5,0.5-1.1,1-1.8,1.3C246.2,474.6,245.4,474.7,244.6,474.7z M240.4,468.9c0,0.6,0.1,1.2,0.3,1.8c0.2,0.5,0.5,1,0.9,1.5
			s0.8,0.7,1.3,1c0.5,0.2,1,0.4,1.6,0.4s1.1-0.1,1.6-0.4c0.5-0.2,0.9-0.6,1.3-1c0.4-0.4,0.7-0.9,0.9-1.5s0.3-1.2,0.3-1.8
			c0-0.6-0.1-1.2-0.3-1.8s-0.5-1.1-0.9-1.5c-0.4-0.4-0.8-0.7-1.3-1c-0.5-0.2-1-0.4-1.6-0.4c-0.6,0-1.1,0.1-1.6,0.4
			c-0.5,0.2-0.9,0.6-1.3,1c-0.4,0.4-0.7,0.9-0.9,1.5C240.5,467.6,240.4,468.2,240.4,468.9z"/>
		<path class="st1" d="M266.8,463.1h1.5l-4.9,11.5h-1.3l-2.4-5.9l-2.4,5.9H256l-4.9-11.5h1.4l4.2,9.9l2.2-5.2l-2-4.7h1.3l1.5,3.7
			l1.5-3.7h1.3l-1.9,4.7l2.2,5.2L266.8,463.1z"/>
		<path class="st1" d="M279.5,466.9c0,0.6-0.2,1-0.6,1.4c-0.4,0.4-0.8,0.6-1.4,0.6c-0.5,0-1-0.2-1.4-0.6c-0.4-0.4-0.6-0.9-0.6-1.4
			c0-0.3,0.1-0.5,0.2-0.7c0.1-0.2,0.2-0.4,0.4-0.6c0.2-0.2,0.4-0.3,0.6-0.4s0.5-0.2,0.8-0.2s0.5,0.1,0.8,0.2s0.5,0.2,0.6,0.4
			c0.2,0.2,0.3,0.4,0.4,0.6C279.5,466.4,279.5,466.7,279.5,466.9z"/>
		<path class="st1" d="M299.6,460.3H294v14.3h-1.5v-14.3h-5.6v-1.4h12.7V460.3z"/>
		<path class="st1" d="M307.3,464.4c-1,0-1.9,0.3-2.6,0.8c-0.7,0.5-1.3,1.3-1.6,2.2v7.1h-1.5v-11.5h1.4v2.8c0.4-0.8,0.9-1.5,1.6-2
			s1.3-0.8,2.1-0.8c0.1,0,0.3,0,0.4,0s0.2,0,0.3,0V464.4z"/>
		<path class="st1" d="M312.1,474.7c-0.6,0-1.1-0.1-1.6-0.3c-0.5-0.2-0.9-0.4-1.2-0.8c-0.3-0.3-0.6-0.7-0.8-1.1
			c-0.2-0.4-0.3-0.9-0.3-1.3c0-0.5,0.1-1,0.4-1.4s0.6-0.8,1-1.1s0.9-0.5,1.5-0.7s1.2-0.3,2-0.3c0.6,0,1.2,0.1,1.8,0.2
			s1.1,0.2,1.6,0.4v-1c0-1-0.3-1.8-0.9-2.4c-0.6-0.6-1.4-0.9-2.3-0.9c-0.6,0-1.2,0.1-1.8,0.4c-0.6,0.2-1.2,0.6-1.9,1l-0.5-1
			c0.7-0.5,1.5-0.9,2.2-1.1c0.7-0.2,1.4-0.4,2.2-0.4c1.4,0,2.5,0.4,3.3,1.2s1.2,1.9,1.2,3.3v5.2c0,0.4,0.2,0.6,0.5,0.6v1.3
			c-0.1,0-0.2,0-0.3,0c-0.1,0-0.2,0-0.3,0c-0.3,0-0.6-0.1-0.8-0.3c-0.2-0.2-0.4-0.4-0.4-0.8l0-0.9c-0.5,0.7-1.2,1.2-2,1.6
			C313.8,474.6,313,474.7,312.1,474.7z M312.5,473.6c0.7,0,1.3-0.1,2-0.4c0.7-0.3,1.2-0.7,1.6-1.2c0.1-0.1,0.2-0.3,0.3-0.4
			s0.1-0.3,0.1-0.4v-1.9c-0.5-0.2-1-0.3-1.6-0.4c-0.5-0.1-1.1-0.2-1.6-0.2c-1.1,0-1.9,0.2-2.6,0.6c-0.7,0.4-1,1-1,1.8
			c0,0.3,0.1,0.6,0.2,0.9s0.3,0.6,0.5,0.8s0.5,0.4,0.9,0.6C311.6,473.5,312,473.6,312.5,473.6z"/>
		<path class="st1" d="M321.1,460.7v-2.2h1.5v2.2H321.1z M321.1,474.5v-11.5h1.5v11.5H321.1z"/>
		<path class="st1" d="M335.5,474.5H334v-6.4c0-1.4-0.2-2.4-0.6-3c-0.4-0.6-1-0.9-1.8-0.9c-0.4,0-0.9,0.1-1.3,0.2
			c-0.4,0.2-0.9,0.4-1.2,0.7c-0.4,0.3-0.7,0.6-1,1s-0.5,0.8-0.6,1.3v7h-1.5v-11.5h1.4v2.6c0.2-0.4,0.5-0.8,0.9-1.1s0.7-0.6,1.2-0.9
			c0.4-0.2,0.9-0.4,1.4-0.6s1-0.2,1.5-0.2c0.6,0,1.2,0.1,1.6,0.4s0.8,0.6,1,1c0.3,0.4,0.5,0.9,0.6,1.6c0.1,0.6,0.2,1.3,0.2,2V474.5z
			"/>
		<path class="st1" d="M338.6,460.7v-2.2h1.5v2.2H338.6z M338.6,474.5v-11.5h1.5v11.5H338.6z"/>
		<path class="st1" d="M352.9,474.5h-1.5v-6.4c0-1.4-0.2-2.4-0.6-3c-0.4-0.6-1-0.9-1.8-0.9c-0.4,0-0.9,0.1-1.3,0.2
			c-0.4,0.2-0.9,0.4-1.2,0.7c-0.4,0.3-0.7,0.6-1,1s-0.5,0.8-0.6,1.3v7h-1.5v-11.5h1.4v2.6c0.2-0.4,0.5-0.8,0.9-1.1s0.7-0.6,1.2-0.9
			c0.4-0.2,0.9-0.4,1.4-0.6s1-0.2,1.5-0.2c0.6,0,1.2,0.1,1.6,0.4s0.8,0.6,1,1c0.3,0.4,0.5,0.9,0.6,1.6c0.1,0.6,0.2,1.3,0.2,2V474.5z
			"/>
		<path class="st1" d="M360.7,474.7c-0.8,0-1.5-0.2-2.2-0.5c-0.7-0.3-1.2-0.8-1.7-1.3c-0.5-0.5-0.8-1.2-1.1-1.9
			c-0.3-0.7-0.4-1.4-0.4-2.2c0-0.8,0.1-1.6,0.4-2.3c0.3-0.7,0.6-1.4,1.1-1.9c0.5-0.5,1-1,1.7-1.3c0.7-0.3,1.4-0.5,2.2-0.5
			c1,0,1.8,0.2,2.6,0.7s1.3,1.1,1.8,1.9v-2.4h1.3v11.5c0,0.8-0.2,1.5-0.5,2.1c-0.3,0.6-0.7,1.1-1.2,1.5s-1.1,0.7-1.8,0.9
			s-1.4,0.3-2.2,0.3c-1.3,0-2.4-0.2-3.2-0.7c-0.8-0.5-1.5-1.1-2-1.9l0.9-0.7c0.5,0.7,1.1,1.3,1.8,1.6s1.5,0.5,2.4,0.5
			c0.6,0,1.1-0.1,1.6-0.2c0.5-0.2,0.9-0.4,1.3-0.7c0.4-0.3,0.7-0.7,0.9-1.1s0.3-1,0.3-1.6v-2.3c-0.5,0.7-1.1,1.3-1.8,1.7
			C362.3,474.5,361.5,474.7,360.7,474.7z M361.1,473.4c0.4,0,0.9-0.1,1.3-0.2s0.8-0.4,1.2-0.6s0.6-0.6,0.9-0.9
			c0.2-0.3,0.4-0.7,0.5-1V467c-0.2-0.4-0.4-0.8-0.7-1.1s-0.6-0.7-1-0.9c-0.4-0.2-0.7-0.4-1.1-0.6c-0.4-0.1-0.8-0.2-1.2-0.2
			c-0.6,0-1.2,0.1-1.7,0.4c-0.5,0.3-0.9,0.6-1.3,1.1c-0.4,0.4-0.6,0.9-0.8,1.5c-0.2,0.6-0.3,1.1-0.3,1.7c0,0.6,0.1,1.2,0.3,1.8
			c0.2,0.6,0.5,1,0.9,1.5c0.4,0.4,0.8,0.7,1.4,1C359.9,473.3,360.5,473.4,361.1,473.4z"/>
	</g>
	<g>
		<path class="st1" d="M175,340.8c1.1-2.6,2.1-5.8,2.9-9.7c1.6-7.7,2.3-18.1,2.3-31.1C175.7,317,175.1,334.2,175,340.8z"/>
		<path class="st1" d="M167.7,366.8c-1.4,0-3.7-0.2-5.1-1.6c0,0-0.1-0.1-0.1-0.1c-0.4,2.1-0.7,4.3-0.6,6.2c0,2.2-0.5,3.9-1.7,5.1
			c-0.6,0.6-1.3,0.9-1.9,1.1h51.1c-0.6-0.8-0.8-2.4-0.8-3.4c0-1.8,0.7-4,1.1-5c0.9-2.2,3.8-3.5,15.7-4.5c3.2-0.3,23.7-3.4,24.2-4.6
			c0.2-0.5-0.5-1.5-1.4-2.7c-0.4-0.6-0.9-1.2-1.4-1.9c-2.4-3.7-9.7-15.1-27.5-24.3c-6-3.1-9.5-9.3-9.4-16.5c0-3.3,0.8-6.4,2.2-9.1
			c-4.9-2-9-3.9-12.4-5.7c-3,16.5-2.9,30.8-2.8,32.7c1.4,1.2,3.3,4,1.1,7c-2,2.8-5.4,1.9-7.1,0.9c-3.9,3.5-7.2,12.8-7.1,19.9
			c0,2.2-0.5,3.9-1.7,5.1c-1.5,1.4-3.4,1.3-3.4,1.3l-9.6,0C169,366.7,168.5,366.8,167.7,366.8z"/>
		<path class="st1" d="M386.4,341c-8.3-6.3-22.2-24.6-41.7-55.1c-25.1-39.4-43.5-62.8-55.4-70.3c44.6-14.5,66.9-41.4,66.9-80.8
			c0-14.8-3.8-28.6-11.4-41.5c-7.6-12.9-17.9-23-31.1-30.4c-13.2-7.4-26.6-12.1-40.2-14c-13.6-2-35.1-2.9-64.6-2.9l-29.8,0.2
			L46.3,46.4v27.1h6.6c16.1,0,26.8,3,32,8.9c5.2,5.9,7.8,16.5,7.8,31.6v195.8c0,14.8-2.5,25.3-7.4,31.4c-5,6.1-15.7,9.2-32.3,9.2
			h-6.6v27.1h94.2c-0.7-1.1-1.1-3.4-1-4.7c0.4-4.7,1-7.6,6.3-10.4c0,0,6.9-4.9,10.1-20.3c2.7-13.1,3-33.9,1-61.8
			c-0.9-13-4.7-20.6-8-27.4c-5.3-10.7-9.5-19.2-0.5-43.1c6.2-16.3,11-23.2,15.3-29.4c4.2-6,7.8-11.2,11.5-23.8
			c1.3-4.5,2.4-9.1,3.5-13.6c3.8-16,7.6-32.6,22.2-44.4c2.4-2.4,3.9-3.6,5.3-4.7c1.9-1.5,3.5-2.7,6.6-6.6c1.5-1.9,4.2-5.9,6.5-11.9
			c0.1-0.4,0-1.3-0.1-2.1c-0.2-1.3-0.3-2.6,0.2-3.2c0.2-0.2,0.5-0.4,0.9-0.4c0.3,0,0.5,0.1,0.8,0.4c1.2,1.3,2.4,6.4,2.2,9
			c-0.3,3.8-1,6.8-1.7,9.4c1.5-2.2,3.8-5.8,5.6-10.7c0.1-0.4,0-1.3-0.1-2.1c-0.2-1.3-0.3-2.6,0.2-3.2c0.4-0.4,1.1-0.6,1.7,0
			c1.2,1.3,2.4,6.4,2.2,9c-0.5,6.2-1.9,10.2-3.1,13.5c-0.5,1.5-1,2.8-1.2,4.1c-0.1,0.3,0.2,0.7,0.6,1.3c0.7,0.9,1.7,2.3,2.1,4.9
			c5.6,3.7,9.8,8.1,12.6,13.2c1.5,2.7,1.2,4.6,0.1,7.3c-1.2,2.9,0.2,4.5,1.3,5.7c0.8,0.9,4.5,4.1,8.3,7.6c6.2,5.5,8.5,7.8,9.1,8.6
			c1.2,1.7,0.4,4.1-0.7,5.1c-0.9,0.8-12.7,8-16.5,8.9c-0.1,0-0.2,0-0.4,0c-1.1,0-2.6,0.5-18.8-9.8c-1.6-1-3.2-2.1-4.7-3.1
			c-4.2,5.3-2.1,14.5-2.1,14.6c0.1,0.2,6.2,23.5,30.8,72.9c11.6,23.3,19.8,34.7,29.3,47.8c6.9,9.6,14.7,20.4,25,37.6
			c4,6.6,5.2,14.1,5.1,20.2c0.3,1.5,1.2,4.2,3.7,6.2c0,0,0,0,0,0l6.6,5.3c1.9,1.5,2.2,4.4,0.7,6.3l-0.1,0.2
			c-1.5,1.9-4.4,2.2-6.3,0.7l-6-4.8c-0.2-0.1-0.4-0.2-0.6-0.4c-0.2-0.2-0.5-0.4-0.8-0.5c-3.8,9.4-12.2,20.7-31.3,22.8h139.8v-27.1
			C403.8,350.4,394.7,347.3,386.4,341z"/>
	</g>
</g>
<g id="Grid" class="st2">
	<rect y="46.2" class="st3" width="46.4" height="46.4"/>
	<rect x="413.8" y="433" class="st3" width="46.4" height="46.4"/>
	<rect x="46.4" class="st3" width="46.4" height="46.4"/>
	<rect x="367.4" y="479.4" class="st3" width="46.4" height="46.4"/>
</g>
</svg>
